{"title":"Rango.2011.THEATRiCAL.DVDRip.XviD-EXViD","uid":6491234,"size":1484745510,"categoryP":"video","categoryS":"movies","magnet":"?xt=urn:btih:438a1da2a328d20aab32f5ef63152f47da1ea2fb&amp;dn=Rango.2011.THEATRiCAL.DVDRip.XviD-EXViD&amp;tr=udp%3A%2F%2Ftracker.openbittorrent.com%3A80&amp;tr=udp%3A%2F%2Fopen.demonii.com%3A1337&amp;tr=udp%3A%2F%2Ftracker.coppersurfer.tk%3A6969&amp;tr=udp%3A%2F%2Fexodus.desync.com%3A6969","seeders":0,"leechers":1,"uploader":"HeroMaster","files":-1,"time":1308896495,"description":"EXVID\n\nFilled the Archives\n\nWith:\n\nE240\n\nSP (C) 2009\n\nRango.2011.EXTENDED.DVDRip.XviD-EXViD\n\nEXViD aims to iNTERNAL those releases which have been lost in the archives\nEXViD aims to PRE non-internal releases which have poor sources and are likely skipped by others\n &lt;a href=&quot;\nhttp://www.imdb.com/title/tt1192628/&quot; rel=&quot;nofollow&quot; target=&quot;_NEW&quot;&gt;\nhttp://www.imdb.com/title/tt1192628/&lt;/a&gt;\nSubtitles: EN, FR, NL, FL (Flemish)\nDate: 2011.06\nDirector: Gore Verbinski\n\nGenres: Animation | Adventure | Comedy | Family | Western\n\nPlot:\nRango is an ordinary chameleon who accidentally winds up in the town of Dirt, a lawless outpost\nin the Wild West in desperate need of a new sheriff\n\nCast:\nJohnny Depp ... Rango / Lars (voice)\nIsla Fisher ... Beans (voice)\nAbigail Breslin ... Priscilla (voice)\nNed Beatty ... Mayor (voice)\nAlfred Molina ... Roadkill (voice)\nBill Nighy ... Rattlesnake Jake (voice)\nStephen Root ... Doc / Merrimack / Mr. Snuggles (voice)\nHarry Dean Stanton ... Balthazar (voice)\nTimothy Olyphant ... Spirit of the West (voice)\nRay Winstone ... Bad Bill (voice)\nIan Abercrombie ... Ambrose (voice)\nGil Birmingham ... Wounded Bird (voice)\nJames Ward Byrkit ... Waffles / GordyPapa / Joad / Cousin Murt / Curlie Knife Attacker / Rodent Kid (voice)\nClaudia Black ... Angelique (voice)\nBlake Clark ... Buford (voice)\n\nStats:\nFormat: AVI\nFormat/Info: Audio Video Interleave\nFile size: 1.37 GiB\nDuration: 1h 47mn\nOverall bit rate: 1 825 Kbps\nWriting application: VirtualDubMod 1.5.10.2 (build 2540/release)\nWriting library: VirtualDubMod build 2540/release\n\nVideo\nID: 0\nFormat: MPEG-4 Visual\nFormat profile: Advanced Simple@L5\nFormat settings, BVOP: Yes\nFormat settings, QPel: No\nFormat settings, GMC: No warppoints\nFormat settings, Matrix: Default (H.263)\nMuxing mode: Packed bitstream\nCodec ID: XVID\nCodec ID/Hint: XviD\nDuration: 1h 47mn\nBit rate: 1 367 Kbps\nWidth: 640 pixels\nHeight: 272 pixels\nDisplay aspect ratio: 2.35:1\nFrame rate: 25.000 fps\nColor space: YUV\nChroma subsampling: 4:2:0\nBit depth: 8 bits\nScan type: Progressive\nBits/(Pixel*Frame): 0.314\nStream size: 1.02 GiB (75%)\nWriting library: XviD 62\n\nAudio\nID: 1\nFormat: AC-3\nFormat/Info: Audio Coding 3\nMode extension: CM (complete main)\nCodec ID: 2000\nDuration: 1h 47mn\nBit rate mode: Constant\nBit rate: 448 Kbps\nChannel(s): 6 channels\nChannel positions: Front: L C R, Side: L R, LFE\nSampling rate: 48.0 KHz\nBit depth: 16 bits\nStream size: 344 MiB (25%)\nAlignment: Split accross interleaves\nInterleave, duration: 40 ms (1.00 video frame)\nInterleave, preload duration: 500 ms\n\n\nRelease notes:\n\nAbout 5 minutes longer than the theatrical cut featuring a &quot;never seen before alternate ending&quot; and other scenes.\n\n\nScreens:\n\n &lt;a href=&quot;\nhttp://leetleech.org/images/14218866508103779142.png&quot; rel=&quot;nofollow&quot; target=&quot;_NEW&quot;&gt;\nhttp://leetleech.org/images/14218866508103779142.png&lt;/a&gt;\n &lt;a href=&quot;\nhttp://leetleech.org/images/93926528801662831314.png&quot; rel=&quot;nofollow&quot; target=&quot;_NEW&quot;&gt;\nhttp://leetleech.org/images/93926528801662831314.png&lt;/a&gt;\n &lt;a href=&quot;\nhttp://leetleech.org/images/61021324749430528931.png&quot; rel=&quot;nofollow&quot; target=&quot;_NEW&quot;&gt;\nhttp://leetleech.org/images/61021324749430528931.png&lt;/a&gt;\n\n\nENJOY!","torrent":{"xt":"urn:btih:438a1da2a328d20aab32f5ef63152f47da1ea2fb","amp;dn":"Rango.2011.THEATRiCAL.DVDRip.XviD-EXViD","amp;tr":["udp%3A%2F%2Ftracker.openbittorrent.com%3A80","udp%3A%2F%2Fopen.demonii.com%3A1337","udp%3A%2F%2Ftracker.coppersurfer.tk%3A6969","udp%3A%2F%2Fexodus.desync.com%3A6969"],"infoHash":"438a1da2a328d20aab32f5ef63152f47da1ea2fb","infoHashBuffer":{"type":"Buffer","data":[67,138,29,162,163,40,210,10,171,50,245,239,99,21,47,71,218,30,162,251]},"announce":[],"urlList":[]}}